<svg id="avocado" xmlns="http://www.w3.org/2000/svg" viewBox="0 0 186.18 188.24"><defs><style>.cls-1{fill:#fff;}.cls-1,.cls-2,.cls-3{stroke:#000;stroke-miterlimit:10;stroke-width:6px;}.cls-2{fill:#b7cc5e;}.cls-3{fill:#ff7061;}</style></defs><title>avocado_color</title><path class="cls-1" d="M491.49,1279.62s3.06-32.18-31.85-33.4a31.8,31.8,0,0,0-21,6.74,57.4,57.4,0,0,0-11.26,12.1c-8.24,11.76-23.62,17.3-29.67,19.1a40.93,40.93,0,0,0-7.08,2.77c-10.23,5.19-33.95,20.35-31.19,48.22,3.25,32.72,20.17,53.92,58.24,54.51a40.36,40.36,0,0,0,19.5-4.55c12.34-6.49,32.23-20.94,34-47.19,0,0,.07-20.42,8.92-33.3A76.24,76.24,0,0,0,491.49,1279.62Z" transform="translate(-308.38 -1204.43)"/><path class="cls-1" d="M397.42,1222.56s-18.53-28.79-48.4-7A33.73,33.73,0,0,0,336,1235a61.27,61.27,0,0,0-1.45,17.44c.85,15.19-8.33,29.88-12.19,35.34a44.75,44.75,0,0,0-4.08,6.94c-5.12,11-14.94,39.19,5.62,60.58,24.13,25.13,52.11,31.68,84.2,7.25A42.87,42.87,0,0,0,421.33,1346c6-13.49,13.12-38.55-2.59-61.57,0,0-13.32-17.05-14.39-33.58A80.58,80.58,0,0,0,397.42,1222.56Z" transform="translate(-308.38 -1204.43)"/><path class="cls-2" d="M391.28,1236.85s-14.41-24.06-37.63-5.8a28.33,28.33,0,0,0-10.14,16.17,54.63,54.63,0,0,0-1.13,14.58c.66,12.7-6.48,25-9.48,29.54a38.4,38.4,0,0,0-3.18,5.81c-4,9.21-11.61,32.75,4.37,50.63,18.77,21,40.53,26.49,65.48,6.06A35.59,35.59,0,0,0,409.88,1340c4.68-11.28,10.2-32.23-2-51.47,0,0-10.36-14.25-11.19-28.06A71.62,71.62,0,0,0,391.28,1236.85Z" transform="translate(-308.38 -1204.43)"/><circle class="cls-3" cx="61.6" cy="115.71" r="28.79"/><path class="cls-1" d="M369.82,1336.22s12.13-1.87,17.36-16.08" transform="translate(-308.38 -1204.43)"/></svg>