<svg id="apple" xmlns="http://www.w3.org/2000/svg" viewBox="0 0 152.79 185.34"><defs><style>.cls-1{fill:#fff;stroke:#000;stroke-miterlimit:10;stroke-width:6px;}</style></defs><title>apple_mono</title><path class="cls-1" d="M199.26,1546.4s-67.55-51.19-72.67,45.06c0,0-.73,37.47,24.1,71.06s48.57,6.59,48.57,6.59,26.19,22,45.28,0c18.85-21.69,27.83-72.47,27.83-72.47S287.62,1500.39,199.26,1546.4Z" transform="translate(-123.59 -1497.03)"/><path class="cls-1" d="M179.41,1499.93s12.26,3.32,15.2,16.62,6.7,28.8,6.7,28.8" transform="translate(-123.59 -1497.03)"/><path class="cls-1" d="M189.21,1549.69s9.43,18.08,22.79,0" transform="translate(-123.59 -1497.03)"/><path class="cls-1" d="M240.66,1543.54c15.27-4.63,26.41-15.37,30.57-27.44-10.17-7.72-25.4-10.45-40.67-5.81s-26.42,15.37-30.58,27.45C210.16,1545.46,225.39,1548.18,240.66,1543.54Z" transform="translate(-123.59 -1497.03)"/><path class="cls-1" d="M217.43,1534s10.87-7.27,23.94-7.81" transform="translate(-123.59 -1497.03)"/></svg>