<svg id="avocado" xmlns="http://www.w3.org/2000/svg" viewBox="0 0 186.18 188.24"><defs><style>.cls-1{fill:#fff;stroke:#000;stroke-miterlimit:10;stroke-width:6px;}</style></defs><title>avocado_mono</title><path class="cls-1" d="M289,1279.62s3.05-32.18-31.85-33.4a31.83,31.83,0,0,0-21,6.74,57.39,57.39,0,0,0-11.25,12.1c-8.24,11.76-23.62,17.3-29.67,19.1a41,41,0,0,0-7.09,2.77c-10.22,5.19-33.94,20.35-31.18,48.22,3.24,32.72,20.17,53.92,58.24,54.51a40.41,40.41,0,0,0,19.5-4.55c12.33-6.49,32.23-20.94,34-47.19,0,0,.06-20.42,8.92-33.3A76.24,76.24,0,0,0,289,1279.62Z" transform="translate(-105.84 -1204.43)"/><path class="cls-1" d="M194.89,1222.56s-18.53-28.79-48.4-7a33.68,33.68,0,0,0-13,19.35A60.55,60.55,0,0,0,132,1252.4c.84,15.19-8.33,29.88-12.19,35.34a44.81,44.81,0,0,0-4.09,6.94c-5.11,11-14.93,39.19,5.62,60.58,24.14,25.13,52.11,31.68,84.2,7.25A43,43,0,0,0,218.8,1346c6-13.49,13.12-38.55-2.59-61.57,0,0-13.33-17.05-14.39-33.58A80.84,80.84,0,0,0,194.89,1222.56Z" transform="translate(-105.84 -1204.43)"/><path class="cls-1" d="M188.75,1236.85s-14.41-24.06-37.64-5.8A28.31,28.31,0,0,0,141,1247.22a54.21,54.21,0,0,0-1.13,14.58c.65,12.7-6.48,25-9.48,29.54a37.54,37.54,0,0,0-3.18,5.81c-4,9.21-11.61,32.75,4.37,50.63,18.77,21,40.52,26.49,65.47,6.06A35.4,35.4,0,0,0,207.34,1340c4.68-11.28,10.2-32.23-2-51.47,0,0-10.36-14.25-11.19-28.06A71.62,71.62,0,0,0,188.75,1236.85Z" transform="translate(-105.84 -1204.43)"/><circle class="cls-1" cx="61.6" cy="115.71" r="28.79"/><path class="cls-1" d="M167.29,1336.22s12.12-1.87,17.36-16.08" transform="translate(-105.84 -1204.43)"/></svg>