<svg id="banana" xmlns="http://www.w3.org/2000/svg" viewBox="0 0 193.33 193.37"><defs><style>.cls-1{fill:#ff7061;}.cls-1,.cls-2,.cls-3,.cls-4{stroke:#000;stroke-miterlimit:10;stroke-width:6px;}.cls-2{fill:#fff;}.cls-3{fill:none;}.cls-4{fill:#b7cc5e;}</style></defs><title>banana_color</title><path class="cls-1" d="M713.65,1346.49s-19,22.27,0,36.67,125.1,21.62,153.91-57-46.5-31.43-46.5-31.43-17,33.07-49.12,41.75S735.92,1335.35,713.65,1346.49Z" transform="translate(-702.21 -1201.91)"/><path class="cls-2" d="M870.92,1284.15s32.05,17.23,18.1,44.54" transform="translate(-702.21 -1201.91)"/><path class="cls-2" d="M830.31,1273.39s-55.46,3.16-68.34,44.46,32-18.28,40.7-22.86,18.39-.24,18.39-.24,38.58,3.91,41.25,62.7c0,0,2.83,64.86,25.36,1.82.08-.24.14-.49.22-.73,2.3-7,13.88-85.09-55.13-70.12" transform="translate(-702.21 -1201.91)"/><path class="cls-3" d="M720.42,1367.66s9.24,9,27.7,4.61" transform="translate(-702.21 -1201.91)"/><path class="cls-3" d="M766.59,1370.57s52.76,1.53,84.93-53.78" transform="translate(-702.21 -1201.91)"/><path class="cls-2" d="M781.67,1290.6" transform="translate(-702.21 -1201.91)"/><path class="cls-3" d="M769.25,1303.16c6.33-2,7.39-16.24,51.81-8.41" transform="translate(-702.21 -1201.91)"/><path class="cls-4" d="M876.22,1294.17c5,3.41.87-49.8-4.6-72s-24.55-16.7-24.55-16.7-8.56,2.31-15.46,18.72-7.05,65.06-7.05,65.06S858.59,1282.24,876.22,1294.17Z" transform="translate(-702.21 -1201.91)"/></svg>