<svg id="banana" xmlns="http://www.w3.org/2000/svg" viewBox="0 0 193.33 191.46"><defs><style>.cls-1{fill:#fff;}.cls-1,.cls-2{stroke:#000;stroke-miterlimit:10;stroke-width:6px;}.cls-2{fill:none;}</style></defs><title>banana_mono</title><path class="cls-1" d="M510.4,1346.49s-19,22.27,0,36.67,125.1,21.62,153.91-57-46.5-31.43-46.5-31.43-17,33.07-49.12,41.75S532.67,1335.35,510.4,1346.49Z" transform="translate(-498.96 -1203.82)"/><path class="cls-1" d="M667.67,1284.15s32.05,17.23,18.1,44.54" transform="translate(-498.96 -1203.82)"/><path class="cls-1" d="M627.06,1273.39s-55.46,3.16-68.34,44.46,32-18.28,40.7-22.86,18.39-.24,18.39-.24,38.58,3.91,41.25,62.7c0,0,2.83,64.86,25.36,1.82.08-.24.14-.49.22-.73,2.3-7,13.88-85.09-55.13-70.12" transform="translate(-498.96 -1203.82)"/><path class="cls-2" d="M517.17,1367.66s9.24,9,27.7,4.61" transform="translate(-498.96 -1203.82)"/><path class="cls-2" d="M563.34,1370.57s52.76,1.53,84.93-53.78" transform="translate(-498.96 -1203.82)"/><path class="cls-1" d="M578.42,1290.6" transform="translate(-498.96 -1203.82)"/><path class="cls-2" d="M566,1303.16c6.33-2,7.39-16.24,51.81-8.41" transform="translate(-498.96 -1203.82)"/><path class="cls-1" d="M672.64,1296.08c5,3.41.88-49.8-4.59-72s-24.55-16.7-24.55-16.7-8.56,2.31-15.47,18.72-7,65.06-7,65.06S655,1284.15,672.64,1296.08Z" transform="translate(-498.96 -1203.82)"/></svg>