<svg id="cherries" xmlns="http://www.w3.org/2000/svg" viewBox="0 0 151.93 186.6"><defs><style>.cls-1{fill:#fff;stroke:#000;stroke-miterlimit:10;stroke-width:6px;}</style></defs><title>cherries_mono</title><circle class="cls-1" cx="115.44" cy="150.11" r="33.49"/><circle class="cls-1" cx="36.49" cy="133.6" r="33.49"/><path class="cls-1" d="M613.36,749.92s9.58-3.81,18.77-1.31" transform="translate(-523.62 -606.41)"/><path class="cls-1" d="M629.1,730.09s-2.3,10,1.57,18.75" transform="translate(-523.62 -606.41)"/><path class="cls-1" d="M547.46,716s8.82,5.33,12.39,14.15" transform="translate(-523.62 -606.41)"/><path class="cls-1" d="M572.76,716.5s-9.39,4.24-14,12.58" transform="translate(-523.62 -606.41)"/><path class="cls-1" d="M556.59,706.52s-2.34-70.11,54.85-97.41" transform="translate(-523.62 -606.41)"/><path class="cls-1" d="M616.57,731.74s-45.45-32.86-19.13-122.66" transform="translate(-523.62 -606.41)"/><path class="cls-1" d="M607.37,657.9c10.64,11.9,25.07,17.48,37.77,16.17,2.72-12.48-1.23-27.44-11.87-39.34s-25.06-17.48-37.77-16.16C592.78,631,596.73,646,607.37,657.9Z" transform="translate(-523.62 -606.41)"/><path class="cls-1" d="M606.26,632.81s11.17,6.8,17.15,18.43" transform="translate(-523.62 -606.41)"/></svg>