<svg id="cherries" xmlns="http://www.w3.org/2000/svg" viewBox="0 0 151.93 186.6"><defs><style>.cls-1{fill:#ff7061;}.cls-1,.cls-2,.cls-3{stroke:#000;stroke-miterlimit:10;stroke-width:6px;}.cls-2{fill:#fff;}.cls-3{fill:#b7cc5e;}</style></defs><title>cherries_color</title><circle class="cls-1" cx="115.44" cy="150.11" r="33.49"/><circle class="cls-1" cx="36.49" cy="133.6" r="33.49"/><path class="cls-2" d="M818.32,749.92s9.58-3.81,18.77-1.31" transform="translate(-728.58 -606.41)"/><path class="cls-2" d="M834.06,730.09s-2.3,10,1.57,18.75" transform="translate(-728.58 -606.41)"/><path class="cls-2" d="M752.42,716s8.82,5.33,12.39,14.15" transform="translate(-728.58 -606.41)"/><path class="cls-2" d="M777.72,716.5s-9.39,4.24-14,12.58" transform="translate(-728.58 -606.41)"/><path class="cls-2" d="M761.55,706.52s-2.34-70.11,54.85-97.41" transform="translate(-728.58 -606.41)"/><path class="cls-2" d="M821.53,731.74s-45.45-32.86-19.13-122.66" transform="translate(-728.58 -606.41)"/><path class="cls-3" d="M812.33,657.9c10.63,11.9,25.06,17.48,37.77,16.17,2.72-12.48-1.23-27.44-11.87-39.34s-25.07-17.48-37.77-16.16C797.74,631,801.69,646,812.33,657.9Z" transform="translate(-728.58 -606.41)"/><path class="cls-2" d="M811.21,632.81s11.17,6.8,17.16,18.43" transform="translate(-728.58 -606.41)"/></svg>