<svg id="grapes" xmlns="http://www.w3.org/2000/svg" viewBox="0 0 153.12 202.4"><defs><style>.cls-1{fill:#ff7061;}.cls-1,.cls-2,.cls-3{stroke:#000;stroke-miterlimit:10;stroke-width:6px;}.cls-2{fill:#fff;}.cls-3{fill:#b7cc5e;}</style></defs><title>grapes_color</title><path class="cls-1" d="M473.63,712.74a20.05,20.05,0,0,0-17.46-19.88,19.43,19.43,0,1,0-35.07-16.74,19.6,19.6,0,0,0-37.21,11.58c-.31,0-.62-.05-.94-.05a23.73,23.73,0,0,0-2.54.14,18.83,18.83,0,0,0,1.21-6.48,19.12,19.12,0,1,0-19.27,19.1,23,23,0,0,0-1.7,4.58,18.58,18.58,0,1,0-15.55,28.73c.34,0,.65-.08,1-.1a20.46,20.46,0,0,0,18.74,35.79,20.06,20.06,0,1,0,37.4,14.13,20.06,20.06,0,1,0,35.57-17.26,20.65,20.65,0,0,0,20.63-34.09A20,20,0,0,0,473.63,712.74Zm-37.88-9.25-.08-.15.14,0Zm-30.77.44c-.05-.13-.1-.26-.14-.4l.37,0C405.12,703.64,405.06,703.79,405,703.93Zm-1,16.19a18.09,18.09,0,0,0,4.83,6.45,22.79,22.79,0,0,0-6.9-1.06c-.46,0-.92,0-1.37.07A23.09,23.09,0,0,0,404,720.12Zm-2,51.46.53,0-.27.85C402.14,772.13,402.06,771.86,402,771.58ZM424.23,754a20.67,20.67,0,0,0,2.56,4.6,20.12,20.12,0,0,0-3.9-.66A22.56,22.56,0,0,0,424.23,754Zm-.67-13.23a23.14,23.14,0,0,0-7.6-10.46,17.75,17.75,0,0,0,4.52.65,18,18,0,0,0,15.39-8.76,20.06,20.06,0,0,0,2.91,4.06A20.66,20.66,0,0,0,423.56,740.8Zm-4.22-45.74a18.41,18.41,0,0,0,1.68-3,19.14,19.14,0,0,0,1.75,3.13,17.24,17.24,0,0,0-2.29-.23C420.09,695,419.73,695,419.34,695.06Zm-62.69,34.53a18.48,18.48,0,0,0,5.89-8.23A23,23,0,0,0,383,733.72c.46,0,.92,0,1.37-.07A22.94,22.94,0,0,0,380.89,758a19.78,19.78,0,0,0-4.1.86,20.45,20.45,0,0,0-18.42-29.37C357.79,729.5,357.22,729.54,356.65,729.59Z" transform="translate(-323.51 -598.64)"/><line class="cls-2" x1="77.02" x2="77.02" y2="65.92"/><path class="cls-3" d="M411.08,619.57A36.71,36.71,0,0,0,402,655.15a36.56,36.56,0,0,0,44.44-45.35A36.71,36.71,0,0,0,411.08,619.57Z" transform="translate(-323.51 -598.64)"/><path class="cls-3" d="M389.44,619.3a36.22,36.22,0,0,1,8.93,35.09,36.06,36.06,0,0,1-43.84-44.73A36.2,36.2,0,0,1,389.44,619.3Z" transform="translate(-323.51 -598.64)"/><path class="cls-2" d="M401.32,652.1s19.37-10.72,27.15-26.38" transform="translate(-323.51 -598.64)"/><path class="cls-2" d="M398.56,652.1s-19.36-10.72-27.14-26.38" transform="translate(-323.51 -598.64)"/></svg>