<svg id="grapes" xmlns="http://www.w3.org/2000/svg" viewBox="0 0 153.12 202.4"><defs><style>.cls-1{fill:#fff;stroke:#000;stroke-miterlimit:10;stroke-width:6px;}</style></defs><title>grapes_mono</title><path class="cls-1" d="M273.55,712.74a20.06,20.06,0,0,0-17.47-19.88A19.43,19.43,0,1,0,221,676.12a19.6,19.6,0,0,0-37.21,11.58c-.32,0-.63-.05-.95-.05a23.54,23.54,0,0,0-2.53.14,18.82,18.82,0,0,0,1.2-6.48,19.11,19.11,0,1,0-19.26,19.1,22.43,22.43,0,0,0-1.7,4.58A18.58,18.58,0,1,0,145,733.72c.34,0,.66-.08,1-.1a20.46,20.46,0,0,0,18.73,35.79,20.06,20.06,0,1,0,37.41,14.13,20.06,20.06,0,1,0,35.57-17.26,20.65,20.65,0,0,0,20.62-34.09A20,20,0,0,0,273.55,712.74Zm-37.88-9.25-.08-.15.14,0Zm-30.78.44c0-.13-.09-.26-.14-.4l.37,0C205,703.64,205,703.79,204.89,703.93Zm-1,16.19a18.09,18.09,0,0,0,4.83,6.45,22.84,22.84,0,0,0-6.9-1.06c-.47,0-.92,0-1.38.07A22.81,22.81,0,0,0,203.87,720.12Zm-2,51.46.53,0c-.1.28-.19.56-.27.85C202.06,772.13,202,771.86,201.88,771.58ZM224.15,754a20.67,20.67,0,0,0,2.56,4.6,20.09,20.09,0,0,0-3.91-.66A21.79,21.79,0,0,0,224.15,754Zm-.68-13.23a23,23,0,0,0-7.59-10.46,17.75,17.75,0,0,0,4.52.65,18,18,0,0,0,15.38-8.76,20.87,20.87,0,0,0,2.91,4.06A20.66,20.66,0,0,0,223.47,740.8Zm-4.21-45.74a19.18,19.18,0,0,0,1.68-3,19.87,19.87,0,0,0,1.74,3.13,17.09,17.09,0,0,0-2.28-.23C220,695,219.64,695,219.26,695.06Zm-62.69,34.53a18.48,18.48,0,0,0,5.89-8.23,23,23,0,0,0,20.4,12.36c.47,0,.92,0,1.38-.07A22.94,22.94,0,0,0,180.81,758a19.78,19.78,0,0,0-4.1.86,20.45,20.45,0,0,0-18.43-29.37C157.7,729.5,157.13,729.54,156.57,729.59Z" transform="translate(-123.42 -598.64)"/><line class="cls-1" x1="77.02" x2="77.02" y2="65.92"/><path class="cls-1" d="M211,619.57a36.72,36.72,0,0,0-9.06,35.58,36.56,36.56,0,0,0,44.44-45.35A36.69,36.69,0,0,0,211,619.57Z" transform="translate(-123.42 -598.64)"/><path class="cls-1" d="M189.35,619.3a36.2,36.2,0,0,1,8.94,35.09,36.06,36.06,0,0,1-43.84-44.73A36.18,36.18,0,0,1,189.35,619.3Z" transform="translate(-123.42 -598.64)"/><path class="cls-1" d="M201.24,652.1s19.36-10.72,27.14-26.38" transform="translate(-123.42 -598.64)"/><path class="cls-1" d="M198.47,652.1s-19.36-10.72-27.14-26.38" transform="translate(-123.42 -598.64)"/></svg>