<svg id="kiwi" xmlns="http://www.w3.org/2000/svg" viewBox="0 0 196.8 169.41"><defs><style>.cls-1{fill:#fff;stroke:#000;stroke-miterlimit:10;stroke-width:6px;}</style></defs><title>kiwi_mono</title><path class="cls-1" d="M135.16,922.2c15.19-7.93,35.25-9.4,58.06,11.34a50,50,0,0,1,16,37.05v40.16A37.9,37.9,0,0,1,187,1045.46c-17.43,7.75-42.48,12.88-65.3-4.67a43.17,43.17,0,0,1-15.1-21.3,28.65,28.65,0,0,1-1.4-8.16V973.39C105.2,952.17,116.34,932,135.16,922.2Z" transform="translate(-102.2 -913.79)"/><path class="cls-1" d="M115.92,1002.47s4.36,35.08,39.12,38.33" transform="translate(-102.2 -913.79)"/><path class="cls-1" d="M237.52,1080.2A58.48,58.48,0,0,0,296,1021.72H179A58.48,58.48,0,0,0,237.52,1080.2Z" transform="translate(-102.2 -913.79)"/><path class="cls-1" d="M237.52,1066.87a45.14,45.14,0,0,0,45.15-45.15h-90.3A45.14,45.14,0,0,0,237.52,1066.87Z" transform="translate(-102.2 -913.79)"/><path class="cls-1" d="M235,1038.42a16.7,16.7,0,0,0,16.7-16.7h-33.4A16.7,16.7,0,0,0,235,1038.42Z" transform="translate(-102.2 -913.79)"/><circle cx="135.81" cy="140.76" r="3.06"/><circle cx="121.32" cy="137.7" r="3.06"/><circle cx="110.45" cy="129.32" r="3.06"/><circle cx="103.62" cy="117.03" r="3.06"/><circle cx="148.81" cy="137.7" r="3.06"/><circle cx="159.68" cy="129.32" r="3.06"/><circle cx="166.51" cy="117.03" r="3.06"/></svg>