<svg id="kiwi" xmlns="http://www.w3.org/2000/svg" viewBox="0 0 196.8 169.41"><defs><style>.cls-1{fill:#ff7061;}.cls-1,.cls-2,.cls-3,.cls-4{stroke:#000;stroke-miterlimit:10;stroke-width:6px;}.cls-2{fill:none;}.cls-3{fill:#fff;}.cls-4{fill:#b7cc5e;}</style></defs><title>kiwi_color</title><path class="cls-1" d="M334,922.2c15.19-7.93,35.26-9.4,58.06,11.34a50,50,0,0,1,16,37.05v40.16a37.9,37.9,0,0,1-22.24,34.71c-17.44,7.75-42.48,12.88-65.31-4.67a43.15,43.15,0,0,1-15.09-21.3,28.33,28.33,0,0,1-1.41-8.16V973.39C304.05,952.17,315.2,932,334,922.2Z" transform="translate(-301.05 -913.79)"/><path class="cls-2" d="M314.78,1002.47s4.35,35.08,39.12,38.33" transform="translate(-301.05 -913.79)"/><path class="cls-3" d="M436.37,1080.2a58.48,58.48,0,0,0,58.48-58.48h-117A58.48,58.48,0,0,0,436.37,1080.2Z" transform="translate(-301.05 -913.79)"/><path class="cls-4" d="M436.37,1066.87a45.15,45.15,0,0,0,45.16-45.15H391.22A45.15,45.15,0,0,0,436.37,1066.87Z" transform="translate(-301.05 -913.79)"/><path class="cls-3" d="M433.81,1038.42a16.7,16.7,0,0,0,16.7-16.7h-33.4A16.7,16.7,0,0,0,433.81,1038.42Z" transform="translate(-301.05 -913.79)"/><circle cx="135.81" cy="140.76" r="3.06"/><circle cx="121.32" cy="137.7" r="3.06"/><circle cx="110.45" cy="129.32" r="3.06"/><circle cx="103.62" cy="117.03" r="3.06"/><circle cx="148.81" cy="137.7" r="3.06"/><circle cx="159.68" cy="129.32" r="3.06"/><circle cx="166.51" cy="117.03" r="3.06"/></svg>