<svg id="lemon" xmlns="http://www.w3.org/2000/svg" viewBox="0 0 198.27 144.65"><defs><style>.cls-1{fill:#fff;}.cls-1,.cls-2,.cls-3{stroke:#000;stroke-miterlimit:10;stroke-width:6px;}.cls-2{fill:#ff7061;}.cls-3{fill:#b7cc5e;}</style></defs><title>lemon_color</title><path class="cls-1" d="M855.84,981.19a19,19,0,0,0-2,.18c-7.17-26.77-33.37-46.64-64.69-46.64s-57.54,19.89-64.7,46.66a22,22,0,0,0-2.31-.2c-10.13,0-18.34,7.08-18.34,15.81s8.21,15.8,18.34,15.8a20.25,20.25,0,0,0,2.83-.25c7.85,25.84,33.57,44.82,64.18,44.82s56.31-19,64.17-44.79a20.88,20.88,0,0,0,2.52.22c10.13,0,18.34-7.08,18.34-15.8S866,981.19,855.84,981.19Z" transform="translate(-700.8 -931.73)"/><path class="cls-2" d="M840,1073.38a56.06,56.06,0,0,0,56.07-56.06H784A56.06,56.06,0,0,0,840,1073.38Z" transform="translate(-700.8 -931.73)"/><path class="cls-3" d="M840,1062.41a45.1,45.1,0,0,0,45.1-45.09H794.92A45.09,45.09,0,0,0,840,1062.41Z" transform="translate(-700.8 -931.73)"/><line class="cls-1" x1="103.93" y1="113.62" x2="132.08" y2="85.46"/><line class="cls-1" x1="139.21" y1="85.59" x2="139.21" y2="130.68"/><line class="cls-1" x1="146.27" y1="85.46" x2="174.43" y2="113.62"/></svg>