<svg id="papaya" xmlns="http://www.w3.org/2000/svg" viewBox="0 0 199.91 196.32"><defs><style>.cls-1{fill:#fff;}.cls-1,.cls-2,.cls-3{stroke:#000;stroke-miterlimit:10;stroke-width:6px;}.cls-2{fill:#b7cc5e;}.cls-3{fill:#ff7061;}</style></defs><title>papaya_color</title><path class="cls-1" d="M785,323.24s-17.12-14.33-38.77-4.19A23,23,0,0,0,735,330.63a68.17,68.17,0,0,0-3.83,11.18c-2.93,11.72-8.22,30.46-17,40.72s-20.61,44.29-4.49,64.32,48.12,43.07,48.12,43.07a11.06,11.06,0,0,0,13.45-.07c6-4.43,24.12-19.81,35.53-29.84a37.65,37.65,0,0,0,12.48-22.83c2-13.83,7.11-33.37-2.57-47.49-12.86-18.75-17.59-24.43-21.5-48.86C795.22,340.83,791.74,327.32,785,323.24Z" transform="translate(-698.72 -298.88)"/><path class="cls-1" d="M750.56,327.63s11.52,14.05,23,0" transform="translate(-698.72 -298.88)"/><path class="cls-1" d="M773.6,302.06s-8.14-2-8.14,7.46-3.12,24.35-3.12,24.35" transform="translate(-698.72 -298.88)"/><path class="cls-2" d="M895.22,382.92s-2.55-21.11-24.2-28.18a21.9,21.9,0,0,0-15.29.78,65.19,65.19,0,0,0-10,5.27C836.1,367,820.22,376.6,807.42,378s-43.18,17.33-45,41.76S767.74,481,767.74,481a10.52,10.52,0,0,0,9.38,8.72c7.06.84,29.67,2,44.14,2.44a35.86,35.86,0,0,0,23.54-7.73c10.41-8.3,26.69-18.55,29.17-34.67,3.29-21.4,3.7-28.43,16.91-47.95C890.88,401.83,897.27,390.18,895.22,382.92Z" transform="translate(-698.72 -298.88)"/><path class="cls-3" d="M881.76,387.84s-1.08-16.83-18-21.54a17.79,17.79,0,0,0-12.22,1.31,59.26,59.26,0,0,0-8.16,4.68c-8,5.44-21.08,13.83-31.34,15.52s-35.19,15.85-37.77,35.54,1.52,48.94,1.52,48.94a7.33,7.33,0,0,0,7.09,6.58c5.59.35,23.56.24,35.07,0A31.47,31.47,0,0,0,837,471.59c8.66-7.13,22.1-16.09,24.8-29.14,3.58-17.32,4.22-23,15.62-39.24C877.46,403.21,883.07,393.57,881.76,387.84Z" transform="translate(-698.72 -298.88)"/><path class="cls-1" d="M844,415.65s-.09-5.53-5.56-6.81a6,6,0,0,0-4,.62,21.31,21.31,0,0,0-2.75,1.67c-2.7,1.92-7.12,4.89-10.51,5.61s-11.77,5.77-12.92,12.3-.28,16.1-.28,16.1a2.14,2.14,0,0,0,2.22,2.05c1.83,0,7.71-.29,11.48-.56a11.26,11.26,0,0,0,6.37-2.69c2.95-2.48,7.49-5.65,8.58-10,1.45-5.76,1.75-7.64,5.74-13.17C842.39,420.78,844.38,417.52,844,415.65Z" transform="translate(-698.72 -298.88)"/></svg>