<svg id="papaya" xmlns="http://www.w3.org/2000/svg" viewBox="0 0 199.91 196.32"><defs><style>.cls-1{fill:#fff;stroke:#000;stroke-miterlimit:10;stroke-width:6px;}</style></defs><title>papaya_mono</title><path class="cls-1" d="M587.16,323.24s-17.11-14.33-38.77-4.19a23,23,0,0,0-11.15,11.58,69.13,69.13,0,0,0-3.83,11.18c-2.93,11.72-8.21,30.46-17,40.72s-20.61,44.29-4.48,64.32S560,489.92,560,489.92a11.06,11.06,0,0,0,13.45-.07c6-4.43,24.12-19.81,35.53-29.84a37.65,37.65,0,0,0,12.48-22.83c2-13.83,7.11-33.37-2.57-47.49-12.85-18.75-17.59-24.43-21.5-48.86C597.42,340.83,594,327.32,587.16,323.24Z" transform="translate(-500.92 -298.88)"/><path class="cls-1" d="M552.76,327.63s11.52,14.05,23,0" transform="translate(-500.92 -298.88)"/><path class="cls-1" d="M575.8,302.06s-8.13-2-8.13,7.46-3.13,24.35-3.13,24.35" transform="translate(-500.92 -298.88)"/><path class="cls-1" d="M697.42,382.92s-2.55-21.11-24.2-28.18a21.91,21.91,0,0,0-15.29.78,65.14,65.14,0,0,0-9.94,5.27c-9.68,6.23-25.57,15.81-38.37,17.2s-43.18,17.33-45,41.76S569.94,481,569.94,481a10.54,10.54,0,0,0,9.39,8.72c7,.84,29.66,2,44.13,2.44A35.87,35.87,0,0,0,647,484.45c10.4-8.3,26.68-18.55,29.16-34.67,3.29-21.4,3.71-28.43,16.91-47.95C693.08,401.83,699.47,390.18,697.42,382.92Z" transform="translate(-500.92 -298.88)"/><path class="cls-1" d="M684,387.84s-1.09-16.83-18-21.54a17.76,17.76,0,0,0-12.21,1.31,58.72,58.72,0,0,0-8.17,4.68c-8,5.44-21.08,13.83-31.34,15.52S579,403.66,576.46,423.35,578,472.29,578,472.29a7.32,7.32,0,0,0,7.09,6.58c5.58.35,23.55.24,35.06,0a31.47,31.47,0,0,0,19.11-7.25c8.66-7.13,22.1-16.09,24.8-29.14,3.58-17.32,4.22-23,15.62-39.24C679.66,403.21,685.28,393.57,684,387.84Z" transform="translate(-500.92 -298.88)"/><path class="cls-1" d="M646.24,415.65s-.09-5.53-5.56-6.81a6,6,0,0,0-4,.62,22,22,0,0,0-2.75,1.67c-2.7,1.92-7.12,4.89-10.51,5.61s-11.77,5.77-12.92,12.3-.27,16.1-.27,16.1a2.13,2.13,0,0,0,2.21,2.05c1.83,0,7.71-.29,11.49-.56a11.29,11.29,0,0,0,6.37-2.69c3-2.48,7.49-5.65,8.58-10,1.44-5.76,1.74-7.64,5.73-13.17C644.59,420.78,646.58,417.52,646.24,415.65Z" transform="translate(-500.92 -298.88)"/></svg>