<svg id="peach" xmlns="http://www.w3.org/2000/svg" viewBox="0 0 195.8 197.42"><defs><style>.cls-1{fill:#fff;}.cls-1,.cls-2,.cls-3{stroke:#000;stroke-miterlimit:10;stroke-width:6px;}.cls-2{fill:#ff7061;}.cls-3{fill:#b7cc5e;}</style></defs><title>peach_color</title><path class="cls-1" d="M346.54,346.65s-29.56-6.2-41.6,22.63-.36,69.32,35.39,87.2a174.32,174.32,0,0,1,16.32,8.78,41.34,41.34,0,0,1,5.94,4.36s12.77-11.12,22.26-15.23S423.53,405,423.53,405s4.74-58.41-34.67-59c0,0-18.65,2.52-31.72,2.18C352.59,348.16,348.71,347.69,346.54,346.65Z" transform="translate(-297.36 -296.77)"/><path class="cls-1" d="M329,367.45s9.44-17.1,25.16-19.31" transform="translate(-297.36 -296.77)"/><path class="cls-1" d="M324.64,378.4s-3.28,40.87,9.86,53.64,23.92,27.83,30.2,35.81" transform="translate(-297.36 -296.77)"/><path class="cls-1" d="M354.18,308A23.31,23.31,0,0,1,362,326.59c-.53,12,0,21.69,0,21.69" transform="translate(-297.36 -296.77)"/><path class="cls-1" d="M432.28,398.83s-23.71-11.31-42.69,5.84-7.66,59.48-7.66,59.48,12.42,28.42,50.35,27c48.1-1.81,54.33-32.77,54.33-32.77s9.78-30.6-3.12-46.75C470.38,395.2,461.11,391.53,432.28,398.83Z" transform="translate(-297.36 -296.77)"/><path class="cls-2" d="M432.67,407s-19.34-9.22-34.82,4.76-6.25,48.51-6.25,48.51,10.13,23.18,41.07,22c39.22-1.48,44.3-26.72,44.3-26.72s8-25-2.54-38.13C463.74,404.05,456.18,401.06,432.67,407Z" transform="translate(-297.36 -296.77)"/><ellipse class="cls-1" cx="135.36" cy="143.96" rx="21.86" ry="23.78"/><path class="cls-3" d="M397.13,335.62a35.7,35.7,0,0,1-35.07-6.8,35.57,35.57,0,0,1,58.36-20.28A35.7,35.7,0,0,1,397.13,335.62Z" transform="translate(-297.36 -296.77)"/><path class="cls-1" d="M364,330s17.71-12.77,35-13.11" transform="translate(-297.36 -296.77)"/></svg>