<svg id="peach" xmlns="http://www.w3.org/2000/svg" viewBox="0 0 195.8 197.42"><defs><style>.cls-1{fill:#fff;stroke:#000;stroke-miterlimit:10;stroke-width:6px;}</style></defs><title>peach_mono</title><path class="cls-1" d="M146.16,346.65s-29.55-6.2-41.6,22.63-.36,69.32,35.4,87.2a174.77,174.77,0,0,1,16.31,8.78,41.49,41.49,0,0,1,5.95,4.36S175,458.5,184.47,454.39,223.15,405,223.15,405s4.74-58.41-34.66-59c0,0-18.65,2.52-31.72,2.18C152.21,348.16,148.33,347.69,146.16,346.65Z" transform="translate(-96.99 -296.77)"/><path class="cls-1" d="M128.65,367.45s9.44-17.1,25.15-19.31" transform="translate(-96.99 -296.77)"/><path class="cls-1" d="M124.27,378.4S121,419.27,134.12,432s23.92,27.83,30.2,35.81" transform="translate(-96.99 -296.77)"/><path class="cls-1" d="M153.8,308a23.33,23.33,0,0,1,7.86,18.61c-.54,12,0,21.69,0,21.69" transform="translate(-96.99 -296.77)"/><path class="cls-1" d="M231.91,398.83s-23.72-11.31-42.69,5.84-7.67,59.48-7.67,59.48,12.42,28.42,50.36,27c48.09-1.81,54.32-32.77,54.32-32.77s9.78-30.6-3.11-46.75C270,395.2,260.73,391.53,231.91,398.83Z" transform="translate(-96.99 -296.77)"/><path class="cls-1" d="M232.29,407s-19.34-9.22-34.81,4.76-6.25,48.51-6.25,48.51,10.12,23.18,41.06,22c39.22-1.48,44.31-26.72,44.31-26.72s8-25-2.54-38.13C263.36,404.05,255.8,401.06,232.29,407Z" transform="translate(-96.99 -296.77)"/><ellipse class="cls-1" cx="135.36" cy="143.96" rx="21.86" ry="23.78"/><path class="cls-1" d="M196.75,335.62a35.7,35.7,0,0,1-35.07-6.8A35.58,35.58,0,0,1,220,308.54,35.68,35.68,0,0,1,196.75,335.62Z" transform="translate(-96.99 -296.77)"/><path class="cls-1" d="M163.65,330s17.71-12.77,35-13.11" transform="translate(-96.99 -296.77)"/></svg>