<svg id="tamarind" xmlns="http://www.w3.org/2000/svg" viewBox="0 0 186.79 188.32"><defs><style>.cls-1{fill:#fff;}.cls-1,.cls-2{stroke:#000;stroke-miterlimit:10;stroke-width:6px;}.cls-2{fill:none;}</style></defs><title>tamarind_mono</title><path class="cls-1" d="M647.91,77.81A16.91,16.91,0,1,0,619.17,88a14.5,14.5,0,0,0-1.75-.28,16.9,16.9,0,0,0-18,21.52,17.12,17.12,0,0,0-5.64-1.63,16.91,16.91,0,0,0-18.08,12.49,16.88,16.88,0,0,0-27.89.31,16.89,16.89,0,1,0-2.27,13.72,16.88,16.88,0,0,0,32.65,0,16.9,16.9,0,0,0,30.07-14.4,16.9,16.9,0,0,0,19.31-27.17,14.66,14.66,0,0,0,1.76.28A16.91,16.91,0,0,0,647.91,77.81Z" transform="translate(-497.65 -12.86)"/><path class="cls-1" d="M672.71,93.72a22.76,22.76,0,1,0-37.05,17.71,23.4,23.4,0,0,0-2.38-.13,22.76,22.76,0,0,0-21.08,31.34A22.67,22.67,0,0,0,582,160.51a22.72,22.72,0,0,0-37.3,4.31,22.74,22.74,0,1,0-1.12,18.69,22.73,22.73,0,0,0,43.71-4.58,22.74,22.74,0,0,0,38.24-23.5,22.74,22.74,0,0,0,22.06-39.07,23.61,23.61,0,0,0,2.39.12A22.76,22.76,0,0,0,672.71,93.72Z" transform="translate(-497.65 -12.86)"/><path class="cls-2" d="M637.86,20.91s28.49,7.84,22.67,52.66" transform="translate(-497.65 -12.86)"/><path class="cls-2" d="M639.92,61.65s19.07-15.91,12-35" transform="translate(-497.65 -12.86)"/><path class="cls-2" d="M663.42,16.71a18.14,18.14,0,0,0-12.21,13.43,18.07,18.07,0,0,0,29.92-9.49A18.11,18.11,0,0,0,663.42,16.71Z" transform="translate(-497.65 -12.86)"/></svg>