<svg id="tamarind" xmlns="http://www.w3.org/2000/svg" viewBox="0 0 186.79 188.32"><defs><style>.cls-1{fill:#ff7061;}.cls-1,.cls-2,.cls-3,.cls-4{stroke:#000;stroke-miterlimit:10;stroke-width:6px;}.cls-2{fill:#fff;}.cls-3{fill:none;}.cls-4{fill:#b7cc5e;}</style></defs><title>tamaring_color</title><path class="cls-1" d="M849.05,77.81A16.91,16.91,0,1,0,820.31,88a14.5,14.5,0,0,0-1.75-.28,16.88,16.88,0,0,0-18,21.52,17.12,17.12,0,0,0-5.64-1.63,16.91,16.91,0,0,0-18.08,12.49,16.88,16.88,0,0,0-27.89.31,16.89,16.89,0,1,0-2.27,13.72,16.88,16.88,0,0,0,32.65,0,16.9,16.9,0,0,0,30.07-14.4,16.9,16.9,0,0,0,19.31-27.17,14.5,14.5,0,0,0,1.75.28A16.91,16.91,0,0,0,849.05,77.81Z" transform="translate(-698.79 -12.86)"/><path class="cls-2" d="M873.85,93.72a22.76,22.76,0,1,0-37.05,17.71,23.44,23.44,0,0,0-2.39-.13,22.74,22.74,0,0,0-21.07,31.34,22.68,22.68,0,0,0-30.24,17.87,22.72,22.72,0,0,0-37.3,4.31,22.74,22.74,0,1,0-1.12,18.69,22.73,22.73,0,0,0,43.72-4.58,22.74,22.74,0,0,0,38.24-23.5,22.53,22.53,0,0,0,7.77,1.39,22.75,22.75,0,0,0,14.29-40.46,23.46,23.46,0,0,0,2.39.12A22.76,22.76,0,0,0,873.85,93.72Z" transform="translate(-698.79 -12.86)"/><path class="cls-3" d="M839,20.91s28.48,7.84,22.67,52.66" transform="translate(-698.79 -12.86)"/><path class="cls-3" d="M841.06,61.65s19.07-15.91,12-35" transform="translate(-698.79 -12.86)"/><path class="cls-4" d="M864.55,16.71a18.14,18.14,0,0,0-12.2,13.43,18.07,18.07,0,0,0,29.92-9.49A18.13,18.13,0,0,0,864.55,16.71Z" transform="translate(-698.79 -12.86)"/></svg>