<svg id="pumpkin" xmlns="http://www.w3.org/2000/svg" viewBox="0 0 192.76 196.5"><defs><style>.cls-1{fill:#fff;}.cls-1,.cls-2,.cls-3,.cls-4{stroke:#000;stroke-miterlimit:10;stroke-width:6px;}.cls-2{fill:none;}.cls-3{fill:#b7cc5e;}.cls-4{fill:#ff7061;}</style></defs><title>watermelon_color</title><circle class="cls-1" cx="79.59" cy="107.55" r="76.59"/><path class="cls-1" d="M374.65,36.12S282,104.53,370.26,188.84" transform="translate(-299.05 -5.15)"/><path class="cls-1" d="M378.64,36.12s-39.93,47.72-6.17,152.72" transform="translate(-299.05 -5.15)"/><path class="cls-1" d="M384.81,36.12s82.72,69,10.69,148.82" transform="translate(-299.05 -5.15)"/><path class="cls-1" d="M382.27,189.29s29.76-59.52,0-153.17" transform="translate(-299.05 -5.15)"/><path class="cls-2" d="M378.64,7.8c10,5.33,13.2,15.94,9.8,21.78-4.11,7.08-18.12,7.69-21.78,2.54a8.12,8.12,0,0,1,1.3-10c2.7-2.42,7.25-2.56,10.88,0" transform="translate(-299.05 -5.15)"/><path class="cls-3" d="M425,198.65a63.85,63.85,0,0,0,63.85-63.85H361.1A63.86,63.86,0,0,0,425,198.65Z" transform="translate(-299.05 -5.15)"/><path class="cls-4" d="M425,190.31c29.22,0,52.91-24.86,52.91-55.51H372.05C372.05,165.45,395.74,190.31,425,190.31Z" transform="translate(-299.05 -5.15)"/><circle cx="125.91" cy="159.44" r="2.99"/><circle cx="109.85" cy="154.41" r="2.99"/><circle cx="100.45" cy="140.54" r="2.99"/><circle cx="141.48" cy="154.41" r="2.99"/><circle cx="150.88" cy="140.54" r="2.99"/></svg>