<svg id="pumpkin" xmlns="http://www.w3.org/2000/svg" viewBox="0 0 192.76 196.5"><defs><style>.cls-1{fill:#fff;stroke:#000;stroke-miterlimit:10;stroke-width:6px;}</style></defs><title>watermelon_mono</title><circle class="cls-1" cx="79.59" cy="107.55" r="76.59"/><path class="cls-1" d="M172.92,36.12s-92.62,68.41-4.38,152.72" transform="translate(-97.33 -5.15)"/><path class="cls-1" d="M176.92,36.12S137,83.84,170.74,188.84" transform="translate(-97.33 -5.15)"/><path class="cls-1" d="M183.09,36.12s82.72,69,10.68,148.82" transform="translate(-97.33 -5.15)"/><path class="cls-1" d="M180.55,189.29s29.76-59.52,0-153.17" transform="translate(-97.33 -5.15)"/><path class="cls-1" d="M176.92,7.8c10,5.33,13.2,15.94,9.8,21.78-4.12,7.08-18.13,7.69-21.78,2.54a8.12,8.12,0,0,1,1.3-10c2.7-2.42,7.25-2.56,10.87,0" transform="translate(-97.33 -5.15)"/><path class="cls-1" d="M223.23,198.65a63.86,63.86,0,0,0,63.86-63.85H159.38A63.85,63.85,0,0,0,223.23,198.65Z" transform="translate(-97.33 -5.15)"/><path class="cls-1" d="M223.23,190.31c29.23,0,52.92-24.86,52.92-55.51H170.32C170.32,165.45,194,190.31,223.23,190.31Z" transform="translate(-97.33 -5.15)"/><circle cx="125.91" cy="159.44" r="2.99"/><circle cx="109.85" cy="154.41" r="2.99"/><circle cx="100.45" cy="140.54" r="2.99"/><circle cx="141.48" cy="154.41" r="2.99"/><circle cx="150.88" cy="140.54" r="2.99"/></svg>