<svg id="Layer_1" data-name="Layer 1" xmlns="http://www.w3.org/2000/svg" viewBox="0 0 848.87 262.38"><defs><style>.cls-1{fill:#ff7061;}.cls-2{fill:#b7cc5e;}</style></defs><title>fruits-icons_logo</title><path class="cls-1" d="M25.25,524.8V311.2h91.2V340H55.85v64.8h52.8v28.8H55.85v91.2Z" transform="translate(-25.25 -309.4)"/><path class="cls-1" d="M151.25,524.8V311.2h49.2q54,0,54,62.7,0,18.9-5.85,32.1t-20.55,21.3l33,97.5h-32.4l-28.5-91.2h-18.3v91.2ZM181.85,340v66.6h17.4c5.4,0,9.69-.75,12.9-2.25a17.59,17.59,0,0,0,7.5-6.45,29.53,29.53,0,0,0,3.3-10.35,113.26,113.26,0,0,0,0-28.5,28.52,28.52,0,0,0-3.6-10.65q-5.72-8.4-21.6-8.4Z" transform="translate(-25.25 -309.4)"/><path class="cls-1" d="M393,311.2V476.8a48.35,48.35,0,0,1-14.4,35.1,50.91,50.91,0,0,1-15.9,10.8,47.77,47.77,0,0,1-19.2,3.9,46.71,46.71,0,0,1-19.05-3.9,52.1,52.1,0,0,1-26.55-26.55A47.45,47.45,0,0,1,294,476.8V311.2h30.6V473.8q0,11.4,5.4,16.8a19.58,19.58,0,0,0,27,0q5.4-5.4,5.4-16.8V311.2Z" transform="translate(-25.25 -309.4)"/><path class="cls-1" d="M437.74,524.8V311.2h30.6V524.8Z" transform="translate(-25.25 -309.4)"/><path class="cls-2" d="M549.67,569.64a18.52,18.52,0,0,1-8.92,2.14c-4.29,0-9.58-1.67-13.21-3.33-23.13-11-25.45-40.21-25.45-58.29a307,307,0,0,1,2.32-34.73c.33-1.43.33-9,2.64-9s6.94,1.19,9.25,1.67c4.63.95,8.92,1.66,8.92,5.94a12.77,12.77,0,0,1-1,3.33c-3.63,15.7-3.3,32.83-3.3,48.77,0,8.57,2.31,40,19.82,40,.66,0,2.64-1.43,3-1.67,10.9-8.8,17.84-35.21,20.81-46.39.33-1,1.32-3.8,3-3.8,3.31,0,4,2.38,4,4.28C571.48,529.43,561.9,563.69,549.67,569.64Z" transform="translate(-25.25 -309.4)"/><path class="cls-2" d="M604.52,567.73c-42.29,0-55.18-38.3-55.18-62.56,0-18.08,7.93-43.3,25.11-56.86,2.31-1.66,5-3.81,8.59-3.81,5.29,0,13.88,1.43,17.51,4.29a49.11,49.11,0,0,1,8.59,3.09c10.25,4.76,10.91,22.84,10.91,30.69,0,5,0,25-10.58,25-10.24,0-11.89-10.95-11.89-16.42,0-5,1.65-12.61,7.27-16.18l.33-1.42c.33-4.52,0-17.61-6.28-20h-.33c-23.46,6.9-29.74,42.83-29.74,59,0,14,4,33.07,18.18,43.54,3.3,2.38,9.91,6.18,14.53,6.18,18.84,0,29.41-24.5,32.38-35,.33-1.19.33-4.76,3-4.76,2,0,4,1.19,4,2.62C640.86,539.42,629.3,567.73,604.52,567.73Z" transform="translate(-25.25 -309.4)"/><path class="cls-2" d="M697.69,557.5c-5.28,5-13.21,9.76-22.47,9.76-37.66,0-47.57-36.64-47.57-57.57,0-7.62,3.63-42.35,11.89-46.15a13,13,0,0,1,6-1,18.83,18.83,0,0,1,3.63.48c5.62-8.09,11.24-16.41,25.44-16.41A31.37,31.37,0,0,1,687.12,449c22.8,10,29.07,35.69,29.07,53.53C716.19,519.68,712.23,543.71,697.69,557.5Zm-16.19-104c-1-.47-2.64-1.9-4-1.9a8.32,8.32,0,0,0-5,1.67C661,460.68,657.05,479,657.05,489.7c0,8.09,1.32,17.85,7.27,24.74,1.65,1.67,8.92,6.43,8.92,7.62,0,1.66-3.63,1.9-5.28,1.9-11.9,0-19.5-9.75-22.8-16.65v2.85c-.33,16.18,4.29,41.63,25.44,50.44a14.65,14.65,0,0,0,5.62,1.42,10.18,10.18,0,0,0,4.62-1.42C696.7,551.79,700,519.44,700,505.88,700,491.37,698.35,464,681.5,453.54Z" transform="translate(-25.25 -309.4)"/><path class="cls-2" d="M844.39,567.26c-17.52,0-35.36-13.8-44.61-23.08-1.65-1.66-3-3.33-3-5.23,0-2.86,3.63-5,7.6-5a7.91,7.91,0,0,1,5.28,1.67c5.95-10.47,11.24-48.29,11.24-60.19,0-5.95-1.65-45.68,7.27-45.68,3,0,14.53,5.71,15.86,7.86a4.55,4.55,0,0,1,.66,2.85c0,7.14-6.28,13.56-6.28,20.93,0,29.5,35.68,60,35.68,85.41C874.12,558.93,860.58,567.26,844.39,567.26Zm-1-48.06a169.3,169.3,0,0,1-13.54-28.78c-2,10.23-4,20.69-6.28,30.92-1.65,7.14-4,14.28-5.29,21.41,4.63,7.14,12.23,18.08,25.45,18.08,8.92,0,11.23-5.23,11.23-10.7C855,541.56,848.35,527.29,843.39,519.2Z" transform="translate(-25.25 -309.4)"/><path class="cls-1" d="M533.14,524.8V340h-35.4V311.2h101.4V340h-35.4V524.8Z" transform="translate(-25.25 -309.4)"/><path class="cls-1" d="M726.64,372.7H696v-6.9a32.67,32.67,0,0,0-4.95-18.15q-5-7.65-16.65-7.65c-4.2,0-7.61.8-10.2,2.4a20.12,20.12,0,0,0-6.3,6,25.18,25.18,0,0,0-3.3,8.85,57.78,57.78,0,0,0-.9,10.35,101.43,101.43,0,0,0,.45,10.5,19.93,19.93,0,0,0,2.25,7.5,16.68,16.68,0,0,0,5.25,5.7,47.66,47.66,0,0,0,9.45,4.8l23.4,9.3a58.16,58.16,0,0,1,16.5,9.15,39.56,39.56,0,0,1,9.9,12.15,56.79,56.79,0,0,1,4.5,16.35,163.62,163.62,0,0,1,1.2,20.85,109.94,109.94,0,0,1-2.7,25.05,52.93,52.93,0,0,1-8.7,19.65,43.26,43.26,0,0,1-16.5,13.2q-10.22,4.8-24.9,4.8a54.43,54.43,0,0,1-20.7-3.9,49,49,0,0,1-16.5-10.8,52.38,52.38,0,0,1-10.95-16,48.74,48.74,0,0,1-4.05-20V464.5h30.6v9.6a25,25,0,0,0,5,15.15q4.95,6.75,16.65,6.75,7.8,0,12.15-2.25a16.27,16.27,0,0,0,6.75-6.45,23.69,23.69,0,0,0,2.85-10.05q.45-5.85.45-13.05a129.31,129.31,0,0,0-.6-13.8,24,24,0,0,0-2.4-8.7,17,17,0,0,0-5.55-5.4,72.46,72.46,0,0,0-9.15-4.5l-21.9-9q-19.8-8.1-26.55-21.45t-6.75-33.45a77.27,77.27,0,0,1,3.3-22.8,51.71,51.71,0,0,1,9.9-18.6,45.37,45.37,0,0,1,16-12.45q9.74-4.65,23.25-4.65a50.8,50.8,0,0,1,20.85,4.2,53.83,53.83,0,0,1,16.35,11.1q13.78,14.4,13.8,33Z" transform="translate(-25.25 -309.4)"/><path class="cls-2" d="M672.57,561.29c-.69-.23-1.35-.49-2-.76-21.15-8.8-25.77-34.26-25.44-50.43v-2.86c3.3,6.9,10.9,16.65,22.8,16.65,1.21,0,3.49-.13,4.61-.85v-2c-1.83-1.86-6.9-5.27-8.25-6.62-6-6.9-7.27-16.65-7.27-24.74,0-10.71,4-29,15.52-36.4v-6.59c-12.74.75-18.1,8.65-23.45,16.34a19.62,19.62,0,0,0-3.63-.47,13.07,13.07,0,0,0-6,1c-8.26,3.8-11.89,38.54-11.89,46.15,0,20.43,9.45,55.8,44.92,57.49Z" transform="translate(-25.25 -309.4)"/><path class="cls-2" d="M802.3,559.64c-30.73,0-34-40.67-34-55.42a176.25,176.25,0,0,1,1-22.84c-7.93,13.8-23.79,57.57-23.79,70.89,0,1.9.66,3.57-3,3.57-3,0-14.21-2.14-14.21-5.24,0-9.75-1.32-19.74-2.31-29.73l-3-35.45c0,5.47,1,51.39-9.58,51.39-1.65,0-3-.95-3-2.14,0-2.86,1.65-6.67,2.31-9.52,3-11.89,3.63-24.5,4.63-36.64.66-11.18.66-22.36,1-33.54,0-1.43,0-2.85,2.31-2.85,3.3,0,7.93,1.42,11.23,1.9,10.25,1.67,8.59,5.71,8.92,12.37l.67,21.41L743.16,523l18.17-41.16c2.31-5.23,4-11.65,7.27-16.65a4.55,4.55,0,0,1,4-1.9c1.66,0,5,.95,6.61,1.19,4.63.95,11.9,1.66,11.9,6.42,0,2.38-1.33,5.23-1.66,7.85a145,145,0,0,0-3.3,29c0,10.47,2.31,38.54,14.87,45.2h.33c6.94-5.23,11.56-22.36,13.21-29.73.33-1.67,2-11.66,3-12.14a6.21,6.21,0,0,1,2-.47c3.63,0,2.64,3.57,2.64,5.47C822.12,523.25,818.16,559.64,802.3,559.64Z" transform="translate(-25.25 -309.4)"/><ellipse class="cls-2" cx="521.02" cy="451.46" rx="12.47" ry="10.14" transform="translate(-86.54 511.11) rotate(-73.27)"/></svg>