<?xml version="1.0" encoding="utf-8"?>
<!-- Generator: Adobe Illustrator 23.0.2, SVG Export Plug-In . SVG Version: 6.00 Build 0)  -->
<svg version="1.1" id="Layer_1" xmlns="http://www.w3.org/2000/svg" xmlns:xlink="http://www.w3.org/1999/xlink" x="0px" y="0px"
	 viewBox="0 0 848.9 262.4" style="enable-background:new 0 0 848.9 262.4;" xml:space="preserve">
<style type="text/css">
	.st0{fill:#FFFFFF;}
</style>
<title>fruits-icons_logo</title>
<path d="M0,215.4V1.8h91.2v28.8H30.6v64.8h52.8v28.8H30.6v91.2H0z"/>
<path d="M126,215.4V1.8h49.2c36,0,54,20.9,54,62.7c0,12.6-1.9,23.3-5.9,32.1c-3.9,8.8-10.8,15.9-20.6,21.3l33,97.5h-32.4l-28.5-91.2
	h-18.3v91.2H126z M156.6,30.6v66.6H174c5.4,0,9.7-0.8,12.9-2.2c3.1-1.4,5.7-3.6,7.5-6.5c1.7-3.2,2.8-6.7,3.3-10.4
	c1.2-9.5,1.2-19,0-28.5c-0.5-3.8-1.7-7.4-3.6-10.6c-3.8-5.6-11-8.4-21.6-8.4H156.6z"/>
<path d="M367.8,1.8v165.6c0.2,13.2-5,25.9-14.4,35.1c-4.6,4.6-10,8.2-15.9,10.8c-6.1,2.6-12.6,3.9-19.2,3.9c-6.6,0.1-13-1.3-19-3.9
	c-11.8-5.2-21.3-14.7-26.5-26.5c-2.6-6.1-4-12.7-3.9-19.4V1.8h30.6v162.6c0,7.6,1.8,13.2,5.4,16.8c7.6,7.2,19.4,7.2,27,0
	c3.6-3.6,5.4-9.2,5.4-16.8V1.8H367.8z"/>
<path d="M412.5,215.4V1.8h30.6v213.6L412.5,215.4L412.5,215.4z"/>
<path class="st0" d="M524.4,260.2c-2.7,1.5-5.8,2.2-8.9,2.1c-4.3,0-9.6-1.7-13.2-3.3c-23.1-11-25.5-40.2-25.5-58.3
	c0.1-11.6,0.9-23.2,2.3-34.7c0.3-1.4,0.3-9,2.6-9s6.9,1.2,9.2,1.7c4.6,1,8.9,1.7,8.9,5.9c-0.2,1.2-0.5,2.3-1,3.3
	c-3.6,15.7-3.3,32.8-3.3,48.8c0,8.6,2.3,40,19.8,40c0.7,0,2.6-1.4,3-1.7c10.9-8.8,17.8-35.2,20.8-46.4c0.3-1,1.3-3.8,3-3.8
	c3.3,0,4,2.4,4,4.3C546.2,220,536.7,254.3,524.4,260.2z"/>
<path class="st0" d="M672.4,248.1c-5.3,5-13.2,9.8-22.5,9.8c-37.7,0-47.6-36.6-47.6-57.6c0-7.6,3.6-42.4,11.9-46.1
	c1.9-0.8,3.9-1.1,6-1c1.2,0,2.4,0.2,3.6,0.5c5.6-8.1,11.2-16.4,25.4-16.4c4.3-0.1,8.5,0.7,12.5,2.4c22.8,10,29.1,35.7,29.1,53.5
	C690.9,210.3,687,234.3,672.4,248.1z M656.2,144.1c-1-0.5-2.6-1.9-4-1.9c-1.8,0-3.6,0.6-5,1.7c-11.5,7.4-15.5,25.7-15.5,36.4
	c0,8.1,1.3,17.9,7.3,24.7c1.7,1.7,8.9,6.4,8.9,7.6c0,1.7-3.6,1.9-5.3,1.9c-11.9,0-19.5-9.8-22.8-16.6v2.9
	c-0.3,16.2,4.3,41.6,25.4,50.4c1.8,0.8,3.7,1.3,5.6,1.4c1.6-0.1,3.2-0.6,4.6-1.4c15.9-8.8,19.2-41.2,19.2-54.7
	C674.8,182,673.1,154.6,656.2,144.1L656.2,144.1z"/>
<path class="st0" d="M819.1,257.9c-17.5,0-35.4-13.8-44.6-23.1c-1.7-1.7-3-3.3-3-5.2c0-2.9,3.6-5,7.6-5c1.9-0.1,3.8,0.5,5.3,1.7
	c6-10.5,11.2-48.3,11.2-60.2c0-6-1.7-45.7,7.3-45.7c3,0,14.5,5.7,15.9,7.9c0.5,0.9,0.8,1.9,0.7,2.9c0,7.1-6.3,13.6-6.3,20.9
	c0,29.5,35.7,60,35.7,85.4C848.9,249.5,835.3,257.9,819.1,257.9z M818.1,209.8c-5.4-9.1-9.9-18.8-13.5-28.8c-2,10.2-4,20.7-6.3,30.9
	c-1.7,7.1-4,14.3-5.3,21.4c4.6,7.1,12.2,18.1,25.5,18.1c8.9,0,11.2-5.2,11.2-10.7C829.8,232.2,823.1,217.9,818.1,209.8z"/>
<path d="M507.9,215.4V30.6h-35.4V1.8h101.4v28.8h-35.4v184.8H507.9z"/>
<path d="M701.4,63.3h-30.6v-6.9c0.2-6.4-1.6-12.7-5-18.1c-3.3-5.1-8.9-7.6-16.7-7.6c-4.2,0-7.6,0.8-10.2,2.4c-2.5,1.5-4.7,3.6-6.3,6
	c-1.6,2.7-2.8,5.7-3.3,8.9c-0.6,3.4-0.9,6.9-0.9,10.4s0.1,7,0.5,10.5c0.2,2.6,1,5.2,2.2,7.5c1.3,2.3,3.1,4.2,5.2,5.7
	c3,1.9,6.1,3.6,9.5,4.8l23.4,9.3c6,2.1,11.5,5.2,16.5,9.1c4.1,3.3,7.4,7.5,9.9,12.1c2.3,5.2,3.8,10.7,4.5,16.4
	c0.8,6.9,1.2,13.9,1.2,20.9c0.1,8.4-0.8,16.8-2.7,25c-1.5,7.1-4.5,13.8-8.7,19.6c-4.3,5.7-10,10.2-16.5,13.2
	c-6.8,3.2-15.1,4.8-24.9,4.8c-7.1,0.1-14.1-1.3-20.7-3.9c-6.2-2.4-11.8-6.1-16.5-10.8c-4.6-4.6-8.3-10-11-16c-2.7-6.3-4.1-13.1-4-20
	v-11.4h30.6v9.6c0,5.5,1.7,10.8,5,15.1c3.3,4.5,8.9,6.8,16.7,6.8c5.2,0,9.2-0.8,12.2-2.2c2.8-1.4,5.2-3.7,6.8-6.5
	c1.7-3.1,2.7-6.5,2.8-10c0.3-3.9,0.5-8.2,0.5-13c0-4.6-0.2-9.2-0.6-13.8c-0.2-3-1.1-6-2.4-8.7c-1.4-2.2-3.3-4.1-5.5-5.4
	c-2.9-1.7-6-3.2-9.2-4.5l-21.9-9c-13.2-5.4-22-12.6-26.5-21.5s-6.8-20-6.8-33.5c0-7.7,1.1-15.4,3.3-22.8c2-6.8,5.4-13.1,9.9-18.6
	c4.3-5.3,9.8-9.6,16-12.5c6.5-3.1,14.2-4.6,23.2-4.6c7.2-0.1,14.3,1.3,20.8,4.2c6.1,2.7,11.6,6.4,16.3,11.1
	c9.2,9.6,13.8,20.6,13.8,33L701.4,63.3z"/>
<path class="st0" d="M647.3,251.9c-0.7-0.2-1.3-0.5-2-0.8c-21.2-8.8-25.8-34.3-25.4-50.4v-2.9c3.3,6.9,10.9,16.7,22.8,16.7
	c1.2,0,3.5-0.1,4.6-0.8v-2c-1.8-1.9-6.9-5.3-8.2-6.6c-6-6.9-7.3-16.6-7.3-24.7c0-10.7,4-29,15.5-36.4v-6.6
	c-12.7,0.8-18.1,8.6-23.5,16.3c-1.2-0.3-2.4-0.4-3.6-0.5c-2.1-0.1-4.1,0.2-6,1c-8.3,3.8-11.9,38.5-11.9,46.1
	c0,20.4,9.5,55.8,44.9,57.5L647.3,251.9z"/>
<path class="st0" d="M777,250.2c-30.7,0-34-40.7-34-55.4c-0.2-7.6,0.2-15.3,1-22.8c-7.9,13.8-23.8,57.6-23.8,70.9
	c0,1.9,0.7,3.6-3,3.6c-3,0-14.2-2.1-14.2-5.2c0-9.8-1.3-19.7-2.3-29.7l-3-35.5c0,5.5,1,51.4-9.6,51.4c-1.7,0-3-1-3-2.1
	c0-2.9,1.7-6.7,2.3-9.5c3-11.9,3.6-24.5,4.6-36.6c0.7-11.2,0.7-22.4,1-33.5c0-1.4,0-2.9,2.3-2.9c3.3,0,7.9,1.4,11.2,1.9
	c10.2,1.7,8.6,5.7,8.9,12.4l0.7,21.4l1.7,35.2l18.2-41.2c2.3-5.2,4-11.6,7.3-16.6c0.9-1.3,2.4-2,4-1.9c1.7,0,5,1,6.6,1.2
	c4.6,1,11.9,1.7,11.9,6.4c0,2.4-1.3,5.2-1.7,7.9c-2.1,9.5-3.2,19.2-3.3,29c0,10.5,2.3,38.5,14.9,45.2h0.3
	c6.9-5.2,11.6-22.4,13.2-29.7c0.3-1.7,2-11.7,3-12.1c0.6-0.3,1.3-0.4,2-0.5c3.6,0,2.6,3.6,2.6,5.5
	C796.9,213.9,792.9,250.2,777,250.2z"/>
<ellipse transform="matrix(0.2879 -0.9577 0.9577 0.2879 217.0162 576.0269)" class="st0" cx="495.8" cy="142.1" rx="12.5" ry="10.1"/>
<path class="st0" d="M579.3,258.3c-42.3,0-55.2-38.3-55.2-62.6c0-18.1,7.9-43.3,25.1-56.9c2.3-1.7,5-3.8,8.6-3.8
	c5.3,0,13.9,1.4,17.5,4.3c3,0.8,5.8,1.8,8.6,3.1c10.2,4.8,10.9,22.8,10.9,30.7c0,5,0,25-10.6,25c-10.2,0-11.9-11-11.9-16.4
	c0-5,1.7-12.6,7.3-16.2l0.3-1.4c0.3-4.5,0-17.6-6.3-20h-0.3c-23.5,6.9-29.7,42.8-29.7,59c0,14,4,33.1,18.2,43.5
	c3.3,2.4,9.9,6.2,14.5,6.2c18.8,0,29.4-24.5,32.4-35c0.3-1.2,0.3-4.8,3-4.8c2,0,4,1.2,4,2.6C615.6,230,604,258.3,579.3,258.3z"/>
</svg>
